<svg
xmlns="http://www.w3.org/2000/svg"
className="absolute"
viewBox="0 0 1440 320"
>
<path
    fill="#f9a8d4"
    fillOpacity="1"
    d="M0,288L30,256C60,224,120,160,180,138.7C240,117,300,139,360,144C420,149,480,139,540,117.3C600,96,660,64,720,53.3C780,43,840,53,900,58.7C960,64,1020,64,1080,90.7C1140,117,1200,171,1260,170.7C1320,171,1380,117,1410,90.7L1440,64L1440,0L1410,0C1380,0,1320,0,1260,0C1200,0,1140,0,1080,0C1020,0,960,0,900,0C840,0,780,0,720,0C660,0,600,0,540,0C480,0,420,0,360,0C300,0,240,0,180,0C120,0,60,0,30,0L0,0Z"
></path>
</svg>